<?xml version="1.0" encoding="utf-8"?>
<!-- Generator: Adobe Illustrator 24.3.0, SVG Export Plug-In . SVG Version: 6.00 Build 0)  -->
<svg version="1.1" id="Layer_1" xmlns="http://www.w3.org/2000/svg" xmlns:xlink="http://www.w3.org/1999/xlink" x="0px" y="0px"
	 viewBox="0 0 1417.32 1417.32" style="enable-background:new 0 0 1417.32 1417.32;" xml:space="preserve">
<style type="text/css">
	.st0{fill:url(#SVGID_1_);}
	.st1{stroke:#FFFFFF;stroke-width:8;stroke-miterlimit:10;}
	.st2{fill:url(#SVGID_2_);}
	.st3{fill:url(#SVGID_3_);}
	.st4{fill:url(#SVGID_4_);}
	.st5{fill:url(#SVGID_5_);}
	.st6{fill:url(#SVGID_6_);}
	.st7{fill:url(#SVGID_7_);}
	.st8{fill:url(#SVGID_8_);}
	.st9{fill:url(#SVGID_9_);}
	.st10{fill:url(#SVGID_10_);}
	.st11{fill:url(#SVGID_11_);}
</style>
<linearGradient id="SVGID_1_" gradientUnits="userSpaceOnUse" x1="140.2075" y1="709" x2="1196.8373" y2="709">
	<stop  offset="0.3894" style="stop-color:#F7941D"/>
	<stop  offset="0.8116" style="stop-color:#F7941D"/>
</linearGradient>
<path class="st0" d="M1063.88,334.65c-24.29-24.69-50.61-47.49-79.15-67.41c-28.48-19.94-58.99-37.11-90.98-51.16
	c-63.92-28.14-133.76-43.43-204.13-44.91c-70.36-1.45-141.38,10.94-207.52,36.83c-66.05,25.89-127.47,64.79-178.76,114.65
	c-51.1,49.99-92.77,110.03-120.73,176.26c-12.21,29.09-21.88,59.27-28.85,90.06c-3.36,14.73-6.1,29.62-8.23,44.6
	c1.54-0.71,3.05-1.42,4.59-2.13c0.55,7.74,1.97,16.77,4.25,27.06c2.25,10.33,4.65,20.77,7.21,31.34c2.25,9.31,4.31,18.34,6.2,27.06
	c-0.03-2.65-0.06-5.33-0.06-7.98c-0.03-54.92,8.6-109.81,25.58-162.02c4.13-12.76,8.78-25.37,13.93-37.79
	c26.07-63.15,64.79-121.06,113.11-169.45c48.3-48.39,106.15-87.22,169.33-113.42c63.12-26.29,131.51-39.79,199.93-39.88
	c68.39-0.03,136.81,13.35,200.06,39.57c63.24,26.11,121.22,64.88,169.67,113.24c48.45,48.39,87.35,106.3,113.57,169.58
	c8.29,19.85,15.29,40.22,20.99,60.93c0.99-0.8,1.94-1.6,2.93-2.37C1173.01,480.46,1127.21,399.47,1063.88,334.65z M1189.07,864.68
	c-4.68,15.04-10.08,29.9-16.15,44.44c-26.23,63.28-65.12,121.19-113.57,169.58c-48.45,48.36-106.42,87.13-169.67,113.24
	c-63.24,26.23-131.67,39.6-200.06,39.57c-68.42-0.09-136.81-13.59-199.93-39.88c-63.18-26.23-121.03-65.03-169.33-113.42
	c-48.3-48.39-87.04-106.3-113.11-169.48c-12.21-29.5-21.67-60.13-28.23-91.38c-3.91-18.55-6.81-37.29-8.66-56.16
	c-0.68,2.77-1.57,5.46-2.65,8.08c-3.02,7.18-6.81,13.28-11.34,18.31c-2.9,3.17-5.95,5.89-9.15,8.08c1.85,11.28,4.04,22.5,6.6,33.66
	c7,30.64,16.61,60.69,28.79,89.66c13.78,33.19,31.41,64.72,51.62,94.28c20.31,29.56,43.49,57.05,69.07,82.05
	c25.52,25.06,53.81,47.16,83.83,66.36c30.02,19.23,61.89,35.44,94.96,48.36c66.14,25.89,137.15,38.28,207.55,36.83
	c70.36-1.51,140.23-16.8,204.16-44.97c31.99-14.02,62.5-31.22,90.98-51.16c28.57-19.91,54.86-42.78,79.15-67.47
	c58.87-60.25,102.57-134.53,127.6-214.45c-0.74-1.08-1.45-2.22-2.1-3.42C1189.29,865.14,1189.16,864.92,1189.07,864.68z
	 M140.21,696.61c0.09-0.43,0.12-0.89,0.03-1.39C140.24,695.69,140.24,696.15,140.21,696.61z"/>
<g>
	<path class="st1" d="M293.33,578.13c-2.47-8.32-6.29-15.72-11.5-22.25c-5.21-6.53-11.62-11.77-19.29-15.75
		c-7.64-3.95-16.4-5.86-26.23-5.67c-6.81,0-13.99,1.05-21.54,3.14c-7.37,2-14.52,5.12-21.45,9.31c-0.18,0.09-0.34,0.22-0.52,0.31
		c-7.09,4.38-13.65,9.89-19.69,16.61c-6.07,6.69-11.06,14.7-15.04,23.95c-1.42,0.4-2.87,0.77-4.28,1.2
		c-7.58,2.06-15.07,4.22-22.38,6.44c-8.69,2.65-17.11,4.93-25.24,6.81c-8.11,1.91-15.87,3.17-23.24,3.82
		c-7.37,0.68-14.27,0.25-20.68-1.26c-7.77-1.88-13.81-4.5-18.15-7.8c-4.35-3.3-7.67-6.04-9.92-8.23c-2.28-2.16-3.79-3.14-4.53-2.96
		c-0.77,0.18-1.23,2.84-1.42,7.92c-0.4,10.79,1.11,19.82,4.53,27.09c3.39,7.27,7.92,13.19,13.59,17.72
		c5.67,4.53,12.11,7.74,19.29,9.65c7.18,1.88,14.27,2.65,21.27,2.25c10.02-0.37,20.37-2.34,31.04-5.95
		c9.18-3.08,18.37-6.72,27.62-10.91c1.54-0.71,3.05-1.42,4.59-2.13c0.55,7.74,1.97,16.77,4.25,27.06
		c2.25,10.33,4.65,20.77,7.21,31.34c2.25,9.31,4.31,18.34,6.2,27.06c0.25,1.2,0.52,2.4,0.77,3.58c2.06,9.83,3.21,18.25,3.39,25.21
		c0.12,5.42-0.4,10.57-1.6,15.47c-0.68,2.77-1.57,5.46-2.65,8.08c-3.02,7.18-6.81,13.28-11.34,18.31c-2.9,3.17-5.95,5.89-9.15,8.08
		c-1.82,1.23-3.7,2.31-5.61,3.24c-5.27,2.56-10.11,3.67-14.45,3.27c-6.6-0.55-12.24-2.25-16.86-5.09
		c-4.62-2.84-8.32-6.53-11.06-11.06c-2.74-4.53-4.53-9.83-5.39-15.87c-0.83-6.07-0.8-12.57,0.15-19.57
		c2.06-12.85,7.03-23.73,14.89-32.61c7.83-8.88,17.44-14.95,28.79-18.15c1.45-0.89,2.31-1.94,2.56-3.17
		c0.09-0.43,0.12-0.89,0.03-1.39c-0.03-0.43-0.15-0.89-0.34-1.39c-0.92-2.47-2.74-4.84-5.36-7.09c-2.65-2.28-5.73-4.22-9.25-5.83
		c-3.48-1.6-6.66-2.4-9.49-2.4c-19.26,7-33.53,17.63-42.81,31.9c-9.28,14.27-13.99,31.44-14.18,51.47
		c-0.18,8.14,0.86,16.3,3.11,24.53c2.28,8.2,5.86,15.69,10.79,22.38c4.9,6.72,11.34,12.36,19.26,16.89
		c7.95,4.53,17.51,7.09,28.66,7.64c11.47,0.71,22.53-0.65,33.16-4.04c0.96-0.28,1.91-0.59,2.84-0.92c8.04-2.84,15.5-6.5,22.38-11.03
		c2.96-1.91,5.79-4.01,8.54-6.26c9.06-7.46,16.64-16.4,22.68-26.78c6.04-10.42,10.02-21.57,11.9-33.47c1.14-7.18,1.14-14.7,0-22.53
		c-1.11-7.86-2.87-15.84-5.24-23.98c-2.37-8.11-4.99-16.3-7.95-24.5c-2.93-8.23-5.64-16.37-8.2-24.41
		c-2.56-8.01-4.59-15.78-6.1-23.24c-1.51-7.46-2-14.61-1.42-21.42c9.06-4.35,17.38-7.64,24.93-9.92c-1.7,4.35-2.87,9.09-3.54,14.18
		c-0.65,5.12-1.08,10.11-1.26,15.04c-0.18,4.16,0.43,7.98,1.85,11.47c1.42,3.51,3.39,6.53,5.95,9.09c2.56,2.56,5.42,4.53,8.66,5.95
		c3.21,1.42,6.6,2.13,10.2,2.13c7.55,0.18,14.61-1.57,21.11-5.24c6.53-3.7,12.3-8.35,17.32-14.05c4.99-5.67,9-11.74,12.02-18.28
		c3.05-6.53,4.84-12.61,5.39-18.28C296.62,594.69,295.76,586.46,293.33,578.13z M270.33,602.82c-0.18,2.84-0.89,6.1-2.13,9.77
		c-1.23,3.7-2.87,7.24-4.96,10.63c-2.06,3.42-4.44,6.35-7.09,8.78c-2.65,2.47-5.49,3.88-8.51,4.25c-6.23,0.96-10.63,0.25-13.19-2.13
		c-2.53-2.34-3.54-5.42-2.96-9.22c2.06-2.07,3.79-3.67,5.09-4.81c1.33-1.14,2.56-2.03,3.7-2.71c1.14-0.65,2.19-1.42,3.11-2.25
		c0.96-0.86,2-2.03,3.11-3.54c2.28-2.84,3.98-5.83,5.12-8.94c1.14-3.11,1.66-6.1,1.57-8.94c-0.09-2.84-0.71-5.33-1.85-7.52
		c-1.14-2.16-2.65-3.73-4.53-4.65l-0.86-0.86c-6.44-1.51-12.91-2.47-19.42-2.84c-6.53-0.37-13.1-0.28-19.69,0.28
		c3.39-3.21,7.49-5.89,12.33-8.08c4.81-2.16,10.32-3.64,16.58-4.41c11.71-1.11,20.71,1.66,26.94,8.38S271.47,590.34,270.33,602.82z"
		/>
	<path class="st1" d="M338.11,731.41c-5.86,6.32-12.11,12.76-18.71,19.29c-6.63,6.5-12.94,12.42-19.02,17.72
		c-6.04,5.27-11.56,9.43-16.58,12.45c-4.99,3.02-8.94,4.16-11.77,3.42c-3.76-1.14-5.79-3.73-6.07-7.8
		c-0.31-4.07,0.03-8.29,0.99-12.64c1.33-7.92,4.16-15.72,8.51-23.39c4.35-7.64,8.94-14.39,13.75-20.28
		c4.81-5.86,9.31-10.48,13.47-13.87c4.16-3.42,6.81-4.84,7.95-4.25c0.18,0.18,0.4,0.37,0.71,0.55c0.28,0.18,0.37,0.55,0.28,1.14
		c-0.09,0.55-0.4,1.45-0.86,2.68c-0.46,1.23-1.26,2.99-2.4,5.24c-0.55,0.96-1.05,1.91-1.42,2.87c-0.37,0.92-1.05,2.07-1.97,3.39
		c-1.14,2.25-1.11,4.16,0.12,5.67s3.08,2.5,5.55,2.96c2.43,0.49,5.05,0.15,7.8-0.99c2.71-1.14,5.15-3.3,7.21-6.5
		c0.37-0.96,0.8-1.91,1.29-2.84c0.46-0.96,0.89-2.1,1.26-3.42c0.74-2.65,1.26-5.98,1.57-10.05c0.28-4.07,0-7.95-0.86-11.65
		c-0.86-3.67-2.5-6.87-4.96-9.62c-2.47-2.74-6.13-4.13-11.06-4.13c-7.18-0.18-14.42,1.6-21.7,5.39
		c-7.27,3.79-14.21,8.78-20.83,15.04c-6.63,6.23-12.76,13.38-18.43,21.39c-5.67,8.04-10.39,16.27-14.18,24.69
		c-3.76,8.41-6.41,16.61-7.92,24.66c-1.51,8.04-1.57,15.23-0.15,21.54c1.42,6.35,4.53,11.4,9.37,15.19
		c4.81,3.76,11.65,5.64,20.56,5.64c6.6,0,13.75-2.31,21.39-6.93c7.67-4.62,15.41-10.54,23.27-17.72
		c7.83-7.18,15.44-15.04,22.81-23.55c0.03-0.06,0.09-0.09,0.15-0.15c1.63-6.87,4.1-13.81,7.37-20.8c2.53-5.39,5.39-10.69,8.66-15.93
		C341.59,727.62,339.86,729.5,338.11,731.41z"/>
	<path class="st1" d="M450.97,714.12c-4.75,5.18-10.05,10.94-15.9,17.29c-5.86,6.32-12.08,12.76-18.71,19.29
		c-6.63,6.5-12.94,12.42-18.99,17.72c-6.07,5.27-11.59,9.43-16.58,12.45c-5.02,3.02-8.94,4.16-11.77,3.42
		c-3.61-1.14-5.55-3.73-5.83-7.8c-0.28-4.07,0.06-8.29,0.99-12.64c2.1,1.33,4.75,2,7.95,2c3.21,0,6.41-0.86,9.65-2.56
		c4.9-2.28,9.68-5.21,14.3-8.78c4.65-3.61,8.91-7.58,12.76-11.93c3.88-4.35,7.24-9.03,10.08-14.02c2.84-5.02,4.99-10.26,6.53-15.75
		c0.55-2.65,1.08-5.95,1.54-9.92c0.46-3.95,0.28-7.8-0.55-11.47c-0.86-3.7-2.56-6.9-5.12-9.65c-2.56-2.74-6.38-4.22-11.47-4.41
		c-7-0.37-14.15,1.2-21.42,4.68c-7.27,3.51-14.27,8.26-20.99,14.33c-6.72,6.04-12.88,13.04-18.55,20.96c-2,2.8-3.88,5.61-5.67,8.48
		c-3.27,5.24-6.13,10.54-8.66,15.93c-3.27,7-5.73,13.93-7.37,20.8c-0.34,1.29-0.62,2.56-0.86,3.85c-1.6,8.14-1.63,15.41-0.12,21.82
		c1.51,6.44,4.72,11.74,9.62,15.9c4.93,4.16,12.02,6.41,21.27,6.78c6.63,0.4,13.81-1.63,21.57-6.07
		c7.74-4.44,15.53-10.17,23.39-17.17c7.83-7,15.6-14.64,23.24-22.96c3.79-4.13,7.4-8.2,10.82-12.17
		c3.48-8.97,6.97-17.57,10.45-25.83c2.16-5.09,4.25-9.99,6.32-14.7C452.27,712.7,451.62,713.38,450.97,714.12z M377.53,731.68
		c4.16-6.13,8.32-11.5,12.48-16.03c4.13-4.53,7.89-8.08,11.19-10.63c3.3-2.56,5.52-3.54,6.66-2.96c0.18,0.18,0.37,0.37,0.59,0.55
		c0.18,0.18,0.22,0.55,0.12,1.14c-0.09,0.55-0.37,1.45-0.83,2.68c-0.49,1.23-1.2,2.99-2.13,5.24c-1.33,2.65-3.24,6.01-5.67,10.08
		c-2.47,4.07-5.27,8.17-8.38,12.33c-3.11,4.16-6.56,7.89-10.36,11.22c-3.76,3.3-7.55,5.33-11.34,6.1c-1.33,0.37-2.07,0.28-2.25-0.31
		C370.04,744.29,373.37,737.82,377.53,731.68z"/>
	<path class="st1" d="M575.12,721.17c-0.59,1.05-1.14,2.03-1.66,2.99c-7.37,13.44-12.76,25.15-16.18,35.17
		c-1.39,4.1-2.47,8.14-3.21,12.14c-1.7,2.06-3.42,4.1-5.15,6.13c-6.53,7.67-13.38,14.79-20.56,21.42
		c-3.98,3.79-8.14,6.81-12.48,9.06c-4.35,2.28-9.06,3.24-14.18,2.84c-6.41-0.18-11.19-2.4-14.3-6.66
		c-3.11-4.25-4.68-9.86-4.68-16.86c-0.18-4.72,0.46-9.8,1.97-15.16c1.51-5.39,3.54-11.06,6.1-17.01c2.56-5.95,5.42-12.2,8.66-18.74
		c3.21-6.5,6.41-13.16,9.65-19.97c-5.89,5.86-11.68,12.7-17.44,20.56c-5.76,7.83-11.31,15.78-16.58,23.82
		c-5.3,8.01-10.26,15.78-14.89,23.24c-4.65,7.46-8.75,13.75-12.36,18.86c-3.21,4.35-6.66,6.84-10.33,7.52
		c-3.7,0.65-6.9,0.09-9.65-1.73c-2.74-1.79-4.75-4.44-5.95-7.92c-1.23-3.51-1.11-7.24,0.4-11.22c4.62-12.98,9.22-25.33,13.81-37.11
		c3.48-8.97,6.97-17.57,10.45-25.83c2.16-5.09,4.25-9.99,6.32-14.7c5.73-13.01,11.22-24.66,16.49-34.92
		c0.96-2.65,2.8-3.91,5.55-3.82c2.74,0.09,5.61,0.99,8.66,2.68c3.02,1.7,5.76,3.98,8.2,6.81c2.47,2.84,3.79,5.67,3.98,8.51
		c-4.53,8.51-8.44,16.21-11.77,23.12c-3.3,6.9-6.75,14.61-10.32,23.12c5.86-6.81,11.65-13.81,17.41-20.99
		c5.76-7.18,11.34-13.62,16.74-19.29c5.39-5.67,10.51-10.23,15.32-13.75c4.81-3.48,9.22-4.96,13.19-4.38
		c1.33,0.92,3.54,2.07,6.66,3.39c3.11,1.33,6.01,3.02,8.66,5.09c2.62,2.1,4.38,4.56,5.24,7.4c0.83,2.84-0.34,6.04-3.54,9.62
		c-2.28,2.65-4.68,6.26-7.24,10.79c-2.56,4.53-5.15,9.49-7.8,14.89c-2.65,5.39-5.21,10.91-7.64,16.58
		c-2.47,5.67-4.68,10.91-6.69,15.75c-1.97,4.81-3.58,8.88-4.81,12.17c-1.23,3.33-1.94,5.27-2.13,5.83
		c3.21-1.14,6.81-3.36,10.79-6.66c3.98-3.3,8.11-7.24,12.45-11.77c4.38-4.53,8.81-9.46,13.35-14.73c4.53-5.3,8.97-10.63,13.31-16.03
		C569.76,727.86,572.5,724.44,575.12,721.17z"/>
	<path class="st1" d="M729.47,721.7c-3.79,3.88-7.64,7.58-11.56,11.13c-7.83,7.09-15.72,13.1-23.67,18
		c0.37-3.79,0.71-9.15,0.99-16.15c0.28-7,0.96-14.05,2-21.14c1.02-7.09,2.71-13.5,5.09-19.26c2.37-5.76,5.83-9.31,10.36-10.63
		c2.47-2.47,3.39-5.3,2.84-8.51c-0.55-3.24-1.79-6.35-3.7-9.37c-1.88-3.02-4.01-5.58-6.38-7.64c-2.34-2.1-4.01-3.33-4.96-3.7
		c-1.11-1.51-2.93-1.66-5.36-0.43c-2.47,1.23-5.18,3.51-8.11,6.81c-2.93,3.3-5.76,7.52-8.51,12.61c-2.74,5.12-4.78,10.69-6.07,16.74
		l-14.27,18.95c-3.11,3.36-5.79,6.26-8.01,8.69c-3.48,3.88-6.78,7.52-9.92,10.91c-3.11,3.42-6.5,7-10.2,10.79
		c-3.67,3.79-8.44,8.51-14.3,14.18c-1.14,1.14-2.96,2.9-5.39,5.24c-2.47,2.37-4.96,4.84-7.52,7.37c-2.56,2.56-4.96,4.87-7.24,6.97
		c-2.25,2.06-3.76,3.39-4.53,3.98c-1.33,0.55-1.85,0.18-1.54-1.14c0.28-1.33,0.92-3.27,1.97-5.83c1.05-2.53,2.37-5.39,3.98-8.51
		c1.6-3.11,3.21-6.04,4.81-8.78c1.6-2.74,2.99-5.15,4.13-7.24c1.11-2.07,1.79-3.3,1.97-3.67c2.47-4.72,6.1-11.1,10.91-19.14
		c4.84-8.04,10.08-16.58,15.75-25.67c5.67-9.06,11.37-18.18,17.14-27.37c5.76-9.15,10.82-17.14,15.19-23.95
		c14.18-1.14,27.68-1.7,40.53-1.7c1.51,0,2.71-0.43,3.54-1.26c0.86-0.86,1.39-1.82,1.57-2.87c0.18-1.02-0.06-2-0.71-2.96
		c-0.68-0.96-1.76-1.6-3.27-2c-10.97-2.43-22.41-3.85-34.3-4.25c0.19-3.58-0.77-6.87-2.84-9.92c-2.1-3.02-4.53-5.36-7.37-7.09
		c-2.84-1.7-5.73-2.71-8.66-3.11c-2.93-0.37-5.15,0.18-6.66,1.7c-5.12,5.3-10.32,11.65-15.6,19.02c-6.81,0.37-13.53,0.83-20.13,1.42
		c-6.63,0.55-13.25,1.05-19.85,1.42c-2.84,1.14-5.67,3.39-8.51,6.81c-2.84,3.39-5.18,6.78-6.97,10.2c-1.79,3.39-2.84,6.2-3.11,8.35
		c-0.28,2.19,0.8,2.71,3.27,1.57c11.16-3.98,25.03-7.27,41.67-9.92c-4.53,6.63-8.97,13.41-13.31,20.4
		c-4.35,7-8.51,13.75-12.48,20.28c-3.98,6.53-7.55,12.57-10.79,18.15c-2.4,4.16-4.47,7.83-6.23,10.97c0,0.03-0.03,0.03-0.03,0.06
		c-0.59,1.05-1.14,2.03-1.66,2.99c-7.37,13.44-12.76,25.15-16.18,35.17c-1.39,4.1-2.47,8.14-3.21,12.14
		c-1.11,5.79-1.54,11.47-1.33,17.07c0.4,6.78,2.56,12.17,6.53,16.15c3.98,3.98,9.15,6.04,15.6,6.23c6.04,0.4,11.65-1.08,16.86-4.38
		c5.21-3.3,10.02-7.37,14.45-12.21c4.44-4.81,8.66-9.92,12.64-15.32c3.98-5.36,7.64-10.05,11.06-14.02
		c7.55-9.06,14.76-18.46,21.67-28.2c3.21-4.5,6.29-9,9.31-13.5c0.65-0.25,1.26-0.65,1.91-1.11l5.09-7.37
		c-0.55,3.02-1.26,6.5-2.13,10.48c-0.83,3.98-1.7,8.14-2.53,12.48c-0.86,4.35-1.76,8.63-2.71,12.91c-0.96,4.22-1.79,8.08-2.56,11.47
		c-7.92,3.02-14.82,5.67-20.68,7.95c-5.86,2.25-10.11,4.72-12.76,7.37c-3.21,3.21-5.73,6.47-7.52,9.77
		c-1.79,3.33-2.77,6.56-2.99,9.8c-0.18,3.21,0.59,6.23,2.28,9.06c1.7,2.84,4.44,5.21,8.23,7.09c2.47,1.33,6.5,2.31,12.17,2.99
		c5.67,0.65,11.74,0.4,18.15-0.71c6.44-1.14,12.76-3.54,19.02-7.24c6.23-3.67,11.34-9.31,15.29-16.86
		c2.65-4.93,4.35-9.31,5.12-13.19c0.74-3.88,1.33-7.89,1.7-12.05c10.97-5.49,20.8-12.42,29.5-20.83c3.02-2.93,5.98-5.95,8.91-9.12
		C732.68,731.38,731.01,726.54,729.47,721.7z M649.03,787.41c-0.49,0.96-1.11,1.88-1.85,2.84c-2.47,3.21-4.87,5.42-7.24,6.66
		c-2.37,1.23-4.38,1.85-6.1,1.85c-1.7,0-2.96-0.46-3.82-1.42c-0.83-0.96-0.99-2-0.43-3.11c0.4-1.33,0.96-2.31,1.73-2.99
		c0.74-0.65,1.91-1.23,3.54-1.7c1.6-0.46,3.67-1.08,6.23-1.85c2.56-0.74,5.82-1.97,9.77-3.7
		C650.11,785.31,649.49,786.45,649.03,787.41z"/>
</g>
<linearGradient id="SVGID_2_" gradientUnits="userSpaceOnUse" x1="829.1047" y1="354.6601" x2="874.2516" y2="328.5945">
	<stop  offset="0.0829" style="stop-color:#AB670D"/>
	<stop  offset="0.0975" style="stop-color:#B46C10"/>
	<stop  offset="0.1439" style="stop-color:#CB7A16"/>
	<stop  offset="0.1932" style="stop-color:#DD851A"/>
	<stop  offset="0.2463" style="stop-color:#EA8C1C"/>
	<stop  offset="0.3057" style="stop-color:#F3911D"/>
	<stop  offset="0.3844" style="stop-color:#F7941D"/>
	<stop  offset="0.9724" style="stop-color:#F5921D"/>
</linearGradient>
<path class="st2" d="M867.9,317.59c5.41,11.09,10.82,22.18,16.48,33.78c-19.15,0-37.86,0-57.17,0c5.58-11.42,11.04-22.6,16.51-33.78
	C851.78,317.59,859.84,317.59,867.9,317.59z"/>
<linearGradient id="SVGID_3_" gradientUnits="userSpaceOnUse" x1="775.3199" y1="352.9031" x2="827.9532" y2="322.5153">
	<stop  offset="0.0829" style="stop-color:#AB670D"/>
	<stop  offset="0.0975" style="stop-color:#B46C10"/>
	<stop  offset="0.1439" style="stop-color:#CB7A16"/>
	<stop  offset="0.1932" style="stop-color:#DD851A"/>
	<stop  offset="0.2463" style="stop-color:#EA8C1C"/>
	<stop  offset="0.3057" style="stop-color:#F3911D"/>
	<stop  offset="0.3844" style="stop-color:#F7941D"/>
	<stop  offset="0.9724" style="stop-color:#F5921D"/>
</linearGradient>
<path class="st3" d="M825.11,317.59c-5.03,10.08-10.14,20.13-15.04,30.28c-1.36,2.82-2.93,4.13-6.29,4.03
	c-9.38-0.27-18.77-0.09-29.09-0.09c1.44-1.7,2.22-2.75,3.12-3.66c8.93-9.02,17.89-18,26.81-27.02c1.05-1.06,1.88-2.35,2.82-3.53
	C813.33,317.59,819.22,317.59,825.11,317.59z"/>
<linearGradient id="SVGID_4_" gradientUnits="userSpaceOnUse" x1="898.2925" y1="342.3635" x2="923.8914" y2="327.584">
	<stop  offset="0.0829" style="stop-color:#AB670D"/>
	<stop  offset="0.0975" style="stop-color:#B46C10"/>
	<stop  offset="0.1439" style="stop-color:#CB7A16"/>
	<stop  offset="0.1932" style="stop-color:#DD851A"/>
	<stop  offset="0.2463" style="stop-color:#EA8C1C"/>
	<stop  offset="0.3057" style="stop-color:#F3911D"/>
	<stop  offset="0.3844" style="stop-color:#F7941D"/>
	<stop  offset="0.9724" style="stop-color:#F5921D"/>
</linearGradient>
<path class="st4" d="M904.18,317.59c3.65,3.92,7.18,7.96,10.97,11.75c7.09,7.09,14.33,14.03,22.42,21.93
	c-2.55,0.29-3.65,0.52-4.74,0.52c-8.35,0.03-16.7-0.17-25.04,0.11c-3.37,0.11-4.92-1.24-6.27-4.05
	c-4.89-10.14-9.99-20.18-15.01-30.26C892.39,317.59,898.29,317.59,904.18,317.59z"/>
<linearGradient id="SVGID_5_" gradientUnits="userSpaceOnUse" x1="932.1828" y1="544.6733" x2="936.2743" y2="542.311">
	<stop  offset="0.0829" style="stop-color:#AB670D"/>
	<stop  offset="0.0975" style="stop-color:#B46C10"/>
	<stop  offset="0.1439" style="stop-color:#CB7A16"/>
	<stop  offset="0.1932" style="stop-color:#DD851A"/>
	<stop  offset="0.2463" style="stop-color:#EA8C1C"/>
	<stop  offset="0.3057" style="stop-color:#F3911D"/>
	<stop  offset="0.3844" style="stop-color:#F7941D"/>
	<stop  offset="0.9724" style="stop-color:#F5921D"/>
</linearGradient>
<path class="st5" d="M935.29,542.85h-0.03c-1.26,0.25-2.5,0.46-3.76,0.65h5.46C936.4,543.28,935.85,543.06,935.29,542.85z"/>
<linearGradient id="SVGID_6_" gradientUnits="userSpaceOnUse" x1="711.1602" y1="621.4283" x2="1000.5065" y2="621.4283">
	<stop  offset="0.3894" style="stop-color:#F7941D"/>
	<stop  offset="0.8116" style="stop-color:#F7941D"/>
</linearGradient>
<path class="st6" d="M998.51,592.65c-2.9-12.94-8.17-24.5-15.32-34.4c-0.34-0.49-0.71-0.99-1.08-1.48
	c-6.01-8.01-13.35-14.86-21.67-20.31c-14.42-9.49-31.87-14.82-50.98-14.92c-6.63-0.06-13.22-0.06-19.85-0.06h-73.32
	c-4.59,0-9.22,0-13.78,0.06c-13.93,0.06-27.25,2.84-40.04,8.6c-38.16,17.29-59.85,62.84-48.14,103.06c1.17,4.04,2.43,8.08,3.7,12.08
	c2.43,7.64,5.05,15.29,7.67,22.87c2.65,7.55,5.33,15.07,7.89,22.62c2.25,6.53,4.53,13.04,6.87,19.76c1.42-0.62,2.43-1.02,3.36-1.54
	c39.76-20.74,80.44-22.68,121.8-5.42c31.22,13.01,63.55,19.17,97.36,17.54c3.05-0.15,4.99-0.8,6.13-4.13
	c6.07-17.97,12.24-35.88,18.43-53.78c2.53-7.37,5.09-14.73,7.64-22.1c2.87-8.35,4.65-16.77,5.15-25.3
	C1000.82,608.15,1000.23,600.42,998.51,592.65z M902.99,546.61c0.34-5.24,3.94-7.8,12.57-7.64c6.72,0.31,13.31,1.6,19.69,3.88h0.03
	c0.55,0.22,1.11,0.43,1.66,0.65c7.58,2.96,14.82,7.34,21.51,13.04c4.04,3.51,4.47,8.23,1.51,11.93c-3.02,3.76-7.8,4.47-11.96,1.08
	c-10.73-8.66-22.78-13.28-36.62-13.93C905.83,555.36,902.71,551.57,902.99,546.61z M981.46,625.54c-0.59,2.9-1.29,5.86-2.25,8.75
	c-2.47,7.58-4.99,15.13-7.58,22.68c-4.47,13.04-9.06,26.04-13.59,39.08c-1.48,4.16-4.25,7-8.97,6.56c-4.16-0.34-6.93-2.99-7.49-7.06
	c-0.28-2.16,0.4-4.59,1.17-6.78c4.56-13.44,9.18-26.91,13.87-40.31c1.66-4.84,3.33-9.65,5.02-14.45c0.19-0.55,0.4-1.11,0.59-1.66
	c3.88-11.19,5.55-22.44,2.65-34.15c-1.51-6.04,1.66-10.82,6.87-11.65c4.87-0.77,8.72,2.74,9.68,8.91c0.83,4.87,1.48,9.8,2.43,16.3
	C983.06,615.86,982.42,620.64,981.46,625.54z"/>
<linearGradient id="SVGID_7_" gradientUnits="userSpaceOnUse" x1="775.7695" y1="794.8327" x2="940.3783" y2="699.7958">
	<stop  offset="0.0829" style="stop-color:#AB670D"/>
	<stop  offset="0.0975" style="stop-color:#B46C10"/>
	<stop  offset="0.1439" style="stop-color:#CB7A16"/>
	<stop  offset="0.1932" style="stop-color:#DD851A"/>
	<stop  offset="0.2463" style="stop-color:#EA8C1C"/>
	<stop  offset="0.3057" style="stop-color:#F3911D"/>
	<stop  offset="0.3844" style="stop-color:#F7941D"/>
	<stop  offset="0.9724" style="stop-color:#F5921D"/>
</linearGradient>
<path class="st7" d="M962.48,738.08c-5.41,12.98-9.43,25.79-15.87,37.22c-7.07,12.55-19.53,18.36-33.93,18.44
	c-37.2,0.22-74.4,0.12-111.6,0.06c-19.55-0.03-33.57-9.01-40.94-27.09c-5.23-12.84-9.32-26.15-14.01-39.5
	c11.52-7.29,23.79-12.19,36.84-15.1c24.68-5.5,48.93-4.01,72.43,5.51c20.13,8.15,40.51,15.41,62.18,17.96
	c11.97,1.41,24.07,1.73,36.11,2.48C956.13,738.22,958.59,738.08,962.48,738.08z"/>
<linearGradient id="SVGID_8_" gradientUnits="userSpaceOnUse" x1="814.8524" y1="506.9109" x2="896.6264" y2="459.6986">
	<stop  offset="0.0829" style="stop-color:#AB670D"/>
	<stop  offset="0.0975" style="stop-color:#B46C10"/>
	<stop  offset="0.1439" style="stop-color:#CB7A16"/>
	<stop  offset="0.1932" style="stop-color:#DD851A"/>
	<stop  offset="0.2463" style="stop-color:#EA8C1C"/>
	<stop  offset="0.3057" style="stop-color:#F3911D"/>
	<stop  offset="0.3844" style="stop-color:#F7941D"/>
	<stop  offset="0.9724" style="stop-color:#F5921D"/>
</linearGradient>
<path class="st8" d="M813.41,462.2c28.32,0,56.28,0,84.66,0c0,14.04,0,27.99,0,42.22c-28.17,0-56.26,0-84.66,0
	C813.41,490.44,813.41,476.58,813.41,462.2z"/>
<linearGradient id="SVGID_9_" gradientUnits="userSpaceOnUse" x1="859.6725" y1="428.8399" x2="946.7056" y2="378.5913">
	<stop  offset="0.0829" style="stop-color:#AB670D"/>
	<stop  offset="0.0975" style="stop-color:#B46C10"/>
	<stop  offset="0.1439" style="stop-color:#CB7A16"/>
	<stop  offset="0.1932" style="stop-color:#DD851A"/>
	<stop  offset="0.2463" style="stop-color:#EA8C1C"/>
	<stop  offset="0.3057" style="stop-color:#F3911D"/>
	<stop  offset="0.3844" style="stop-color:#F7941D"/>
	<stop  offset="0.9724" style="stop-color:#F5921D"/>
</linearGradient>
<path class="st9" d="M940.95,368.63c-5.99,9.24-11.43,17.64-16.87,26.04c-10.17,15.71-20.39,31.38-30.44,47.17
	c-1.62,2.54-3.36,3.52-6.35,3.39c-5.85-0.25-11.72-0.07-18.2-0.07c0.78-1.92,1.3-3.33,1.92-4.7c10.28-22.64,20.64-45.25,30.79-67.95
	c1.35-3.01,2.95-4.02,6.2-3.95C918.67,368.76,929.34,368.63,940.95,368.63z"/>
<linearGradient id="SVGID_10_" gradientUnits="userSpaceOnUse" x1="796.1557" y1="412.9029" x2="823.8456" y2="396.9161">
	<stop  offset="0.0829" style="stop-color:#AB670D"/>
	<stop  offset="0.0975" style="stop-color:#B46C10"/>
	<stop  offset="0.1439" style="stop-color:#CB7A16"/>
	<stop  offset="0.1932" style="stop-color:#DD851A"/>
	<stop  offset="0.2463" style="stop-color:#EA8C1C"/>
	<stop  offset="0.3057" style="stop-color:#F3911D"/>
	<stop  offset="0.3844" style="stop-color:#F7941D"/>
	<stop  offset="0.9724" style="stop-color:#F5921D"/>
</linearGradient>
<path class="st10" d="M841.98,445.14c-6.72,0-13.35,0.07-19.97-0.08c-0.99-0.02-2.32-0.87-2.88-1.74
	c-16.04-24.57-32-49.19-48.38-74.44c2.21-0.1,3.81-0.24,5.42-0.25c9.44-0.02,18.89-0.11,28.33,0.09c1.5,0.03,3.79,0.99,4.33,2.16
	c11.13,24.11,22.06,48.32,33.02,72.51C842,443.79,841.91,444.3,841.98,445.14z"/>
<linearGradient id="SVGID_11_" gradientUnits="userSpaceOnUse" x1="838.2297" y1="402.8487" x2="887.9592" y2="374.1373">
	<stop  offset="0.0829" style="stop-color:#AB670D"/>
	<stop  offset="0.0975" style="stop-color:#B46C10"/>
	<stop  offset="0.1439" style="stop-color:#CB7A16"/>
	<stop  offset="0.1932" style="stop-color:#DD851A"/>
	<stop  offset="0.2463" style="stop-color:#EA8C1C"/>
	<stop  offset="0.3057" style="stop-color:#F3911D"/>
	<stop  offset="0.3844" style="stop-color:#F7941D"/>
	<stop  offset="0.9724" style="stop-color:#F5921D"/>
</linearGradient>
<path class="st11" d="M855.79,433.26c-9.99-21.95-19.48-42.82-29.23-64.23c19.63,0,38.7,0,58.45,0
	C875.37,390.23,865.82,411.21,855.79,433.26z"/>
<g>
	<path d="M252.17,864.36c0,4.35-2.71,8.3-8.12,11.88c-4.4,2.91-7.84,4.36-10.32,4.36c-1.71,0-2.56-0.8-2.56-2.4
		c0-0.48,0.13-1.13,0.4-1.96l-15.32,25.55c-0.93-0.21-1.69-0.32-2.28-0.32c-0.88,0-1.75,0.16-2.6,0.48l32.83-53.98
		c0.72,0.24,1.43,0.36,2.12,0.36c0.72,0,1.6-0.12,2.64-0.36l-11.88,19.19c2.85-3.79,4.92-6.26,6.22-7.44
		c1.29-1.17,2.58-1.76,3.86-1.76c1.41,0,2.6,0.61,3.56,1.84C251.69,861.03,252.17,862.55,252.17,864.36z M249.21,861.16
		c0-1.73-0.77-2.6-2.32-2.6c-1.95,0-5.21,3.13-9.8,9.4c-3.55,4.85-5.32,8.18-5.32,10c0,1.36,0.63,2.04,1.88,2.04
		c2.45,0,5.66-2.39,9.62-7.18C247.23,868.03,249.21,864.15,249.21,861.16z"/>
	<path d="M293.04,867.18c0,0.08-0.24,0.43-0.72,1.04l-1.72,2.16c-5.52,6.82-10.26,10.22-14.21,10.22c-1.87,0-3.44-0.67-4.7-2.02
		c-1.27-1.35-1.9-3.03-1.9-5.06c0-4.8,3.35-9.02,10.04-12.68c3.52-1.92,6.38-2.88,8.6-2.88c0.96,0,1.78,0.29,2.46,0.86
		c0.68,0.57,1.02,1.27,1.02,2.1c0,1.92-1.25,3.55-3.76,4.9c-2.51,1.35-6.69,2.61-12.56,3.78c-1.81,2.75-2.72,5.04-2.72,6.88
		c0,2.29,1.24,3.44,3.72,3.44c4.22,0,9.38-4.11,15.49-12.34c0.32-0.43,0.59-0.64,0.8-0.64
		C292.99,866.96,293.04,867.04,293.04,867.18z M289.67,859.76c0-0.85-0.47-1.28-1.4-1.28c-1.41,0-3.27,0.98-5.58,2.94
		c-2.31,1.96-4.57,4.5-6.78,7.62c3.84-0.99,7.09-2.38,9.76-4.18C288.33,863.06,289.67,861.36,289.67,859.76z"/>
	<path d="M333.86,867.14c0,0.21-0.8,1.19-2.4,2.93c-2.03,2.25-3.94,3.37-5.73,3.37c-2.03,0-3.04-1.17-3.04-3.52
		c0-0.75,0.16-1.69,0.48-2.84c-1.68,1.47-3.05,2.92-4.1,4.36c-1.05,1.44-2.87,4.37-5.46,8.8c-1.41-0.11-2.24-0.16-2.48-0.16
		c-0.11,0-0.92,0.05-2.44,0.16l6.56-10.64c3.28-5.33,4.92-8.64,4.92-9.92c0-0.75-0.31-1.12-0.92-1.12c-1.5,0-4.21,2.87-8.13,8.62
		c-0.24,0.37-0.45,0.56-0.64,0.56c-0.11-0.03-0.16-0.11-0.16-0.24c0.03-0.13,0.08-0.24,0.16-0.32l0.72-1
		c4.11-5.48,6.9-8.21,8.37-8.21c2.14,0,3.2,1.37,3.2,4.12c0,2.05-1.09,4.77-3.28,8.16c1.39-1.6,2.71-2.91,3.96-3.92
		c1.01-2.37,2.27-4.36,3.78-5.96c1.51-1.6,2.86-2.4,4.06-2.4c0.83,0,1.24,0.36,1.24,1.08c0,1.28-1.85,3.11-5.56,5.48
		c-0.59,0.37-1.47,0.92-2.64,1.64l-0.48,0.4c-0.37,1.23-0.56,2.24-0.56,3.04c0,2.24,0.84,3.36,2.52,3.36c2.08,0,4.35-1.73,6.81-5.18
		c0.53-0.59,0.87-0.88,1-0.88C333.78,866.9,333.86,866.98,333.86,867.14z"/>
	<path d="M378.93,838.49c0,2.37-1.68,5.35-5.04,8.94c-3.36,3.59-7.76,7.1-13.2,10.54h6.88l-0.36,0.6h-6.96l-3.28,6.36
		c-4.03,7.86-7.47,13.79-10.32,17.78c-2.85,3.98-6.15,7.54-9.88,10.66c-5.15,4.27-9.93,6.4-14.36,6.4c-1.97,0-2.96-0.29-2.96-0.86
		c0-0.27,0.15-0.4,0.44-0.4c0.21,0,0.37,0.03,0.48,0.08c0.96,0.28,1.87,0.42,2.72,0.42c3.6,0,7.23-1.61,10.88-4.84
		c2.24-1.97,4.2-4.29,5.88-6.96c1.39-2.13,4.67-7.94,9.84-17.43l6.16-11.2h-4.28l0.32-0.6h4.36c3.41-5.78,7.19-10.79,11.32-15.02
		c4.13-4.23,7.32-6.34,9.56-6.34C378.32,836.61,378.93,837.23,378.93,838.49z M378.45,838.41c0-0.88-0.44-1.32-1.32-1.32
		c-2.03,0-4.79,2.32-8.28,6.96c-1.73,2.35-4.35,6.72-7.84,13.12c4.37-3.04,8.37-6.5,12-10.4
		C376.63,842.87,378.45,840.08,378.45,838.41z"/>
	<path d="M406.36,867.14c0,0.61-1.94,3.2-5.8,7.77c-3.2,3.79-5.74,5.69-7.61,5.69c-1.17,0-2.17-0.47-2.98-1.42s-1.22-2.09-1.22-3.42
		c0-1.04,0.52-2.49,1.56-4.36l-0.8,1.08c-2.45,3.15-4.25,5.25-5.4,6.32c-1.25,1.2-2.44,1.8-3.56,1.8c-1.17,0-2.16-0.46-2.96-1.38
		s-1.2-2.05-1.2-3.38c0-1.55,0.6-3.32,1.8-5.32l7.28-12.24c0.91,0.19,1.61,0.28,2.12,0.28c0.51,0,1.41-0.09,2.72-0.28l-9.52,15.67
		c-0.96,1.6-1.44,3.01-1.44,4.24c0,1.2,0.51,1.8,1.52,1.8c2.69,0,7.01-5.03,12.96-15.08l3.92-6.64c0.83,0.19,1.52,0.28,2.08,0.28
		c0.67,0,1.61-0.09,2.84-0.28l-6.4,10.44c-3.04,4.96-4.56,8.14-4.56,9.56c0,1.15,0.55,1.72,1.64,1.72c2.14,0,5.61-3.36,10.41-10.09
		l1.24-1.72l0.72-0.88c0.13-0.27,0.27-0.4,0.4-0.4C406.28,866.9,406.36,866.98,406.36,867.14z"/>
	<path d="M468.84,867.14c-0.03,0.08-0.16,0.29-0.4,0.64l-1.72,2.36c-5.02,6.97-8.73,10.45-11.13,10.45c-1.25,0-2.28-0.47-3.08-1.4
		c-0.8-0.93-1.2-2.13-1.2-3.6c0-1.49,0.51-3.11,1.52-4.84c0.19-0.32,1.16-1.75,2.92-4.28c2.24-3.2,3.36-5.29,3.36-6.28
		c0-1.09-0.55-1.64-1.64-1.64c-3.52,0-9.56,7.22-18.11,21.67c-0.53-0.11-1.27-0.16-2.2-0.16c-1.09,0-2.03,0.05-2.8,0.16l5.68-9
		c3.71-5.92,5.56-9.54,5.56-10.88c0-1.2-0.49-1.8-1.48-1.8c-1.47,0-3.87,2.11-7.2,6.32c-3.33,4.21-6.64,9.33-9.92,15.36
		c-0.61-0.11-1.4-0.16-2.36-0.16c-1.04,0-1.95,0.05-2.72,0.16l5.72-9c3.95-6.18,5.92-10.01,5.92-11.48c0-0.8-0.31-1.2-0.92-1.2
		c-1.31,0-4.02,2.86-8.13,8.58c-0.27,0.37-0.48,0.56-0.64,0.56c-0.11-0.03-0.16-0.11-0.16-0.24c0-0.24,1.23-1.9,3.68-4.99
		c2.4-3.01,4.26-4.51,5.57-4.51c0.85,0,1.59,0.41,2.2,1.22c0.61,0.81,0.92,1.78,0.92,2.9c0,1.55-0.79,3.69-2.36,6.44
		c4.8-7.04,8.37-10.56,10.72-10.56c1.12,0,2.04,0.45,2.76,1.36c0.72,0.91,1.08,2.04,1.08,3.4c0,1.52-0.71,3.45-2.12,5.8
		c5.06-7.04,8.86-10.56,11.4-10.56c1.15,0,2.11,0.49,2.9,1.48c0.79,0.99,1.18,2.19,1.18,3.6c0,1.65-0.65,3.59-1.96,5.8
		c-0.03,0.03-1.17,1.73-3.44,5.12c-1.31,1.92-1.96,3.39-1.96,4.4c0,1.09,0.55,1.64,1.64,1.64c2.08,0,5.53-3.36,10.33-10.09
		l1.24-1.72l0.72-0.88c0.13-0.27,0.27-0.4,0.4-0.4C468.76,866.9,468.84,866.98,468.84,867.14z"/>
	<path d="M507.1,867.18c0,0.08-0.24,0.43-0.72,1.04l-1.72,2.16c-5.52,6.82-10.26,10.22-14.21,10.22c-1.87,0-3.44-0.67-4.7-2.02
		c-1.27-1.35-1.9-3.03-1.9-5.06c0-4.8,3.35-9.02,10.04-12.68c3.52-1.92,6.38-2.88,8.6-2.88c0.96,0,1.78,0.29,2.46,0.86
		c0.68,0.57,1.02,1.27,1.02,2.1c0,1.92-1.25,3.55-3.76,4.9c-2.51,1.35-6.69,2.61-12.56,3.78c-1.81,2.75-2.72,5.04-2.72,6.88
		c0,2.29,1.24,3.44,3.72,3.44c4.22,0,9.38-4.11,15.49-12.34c0.32-0.43,0.59-0.64,0.8-0.64C507.04,866.96,507.1,867.04,507.1,867.18z
		 M503.72,859.76c0-0.85-0.47-1.28-1.4-1.28c-1.41,0-3.27,0.98-5.58,2.94c-2.31,1.96-4.57,4.5-6.78,7.62
		c3.84-0.99,7.09-2.38,9.76-4.18C502.38,863.06,503.72,861.36,503.72,859.76z"/>
	<path d="M538.61,851.62c0,1.06-1.67,3.18-5,6.34c-0.16,0.83-0.24,1.55-0.24,2.16c0,1.55,0.71,4,2.12,7.36
		c0.72,1.68,1.08,3.09,1.08,4.24c0,2.4-1.17,4.48-3.5,6.24c-2.33,1.76-5.1,2.64-8.3,2.64c-1.81,0-3.26-0.51-4.34-1.54
		c-1.08-1.03-1.62-2.41-1.62-4.14c0-2,0.71-3.95,2.14-5.84s2.9-2.84,4.42-2.84c0.27,0,0.51,0.05,0.72,0.16l3.2-3.92
		c0.96-1.15,2.24-2.73,3.84-4.76c0.45-1.87,1.15-3.46,2.08-4.8c0.93-1.33,1.85-2,2.76-2C538.4,850.92,538.61,851.16,538.61,851.62z
		 M533.05,867.4c0-0.8-0.03-1.59-0.08-2.38c-0.05-0.79-0.08-1.91-0.08-3.38c0-1.2,0.05-2.2,0.16-3c-1.49,1.89-3.65,4.56-6.48,8
		c0.51,0.43,0.76,0.95,0.76,1.56c0,1.57-1.29,2.64-3.88,3.2c-1.04,0.24-1.94,0.81-2.7,1.7c-0.76,0.89-1.14,1.83-1.14,2.82
		c0,1.07,0.39,1.96,1.16,2.68c0.77,0.72,1.73,1.08,2.88,1.08c2.24,0,4.36-1.3,6.38-3.9C532.04,873.18,533.05,870.38,533.05,867.4z"
		/>
	<path d="M665.78,861.4c0,4.69-1.51,8.68-4.52,11.96c-3.01,3.28-6.67,4.92-10.96,4.92c-1.71,0-3.73-0.44-6.08-1.32
		c-4.19,2.75-8.8,4.12-13.84,4.12c-4.19,0-7.95-0.95-11.3-2.86c-3.35-1.91-5.78-4.47-7.3-7.7c-3.57-1.2-6.37-3.13-8.4-5.8
		c-2.03-2.67-3.04-5.76-3.04-9.28c0-6.24,2.79-11.5,8.36-15.78c5.58-4.28,12.42-6.42,20.53-6.42c4.52,0,9.08,0.71,13.66,2.12
		c2.03-2.35,4.09-4.31,6.2-5.9c2.11-1.59,3.71-2.38,4.8-2.38c0.93,0,1.4,0.44,1.4,1.32c0,1.57-2.68,4.44-8.04,8.6
		c5.65,2.53,10.15,6,13.5,10.42C664.1,851.83,665.78,856.49,665.78,861.4z M642.43,835.93c-3.79-1.2-7.54-1.8-11.28-1.8
		c-7.49,0-14.1,2.33-19.83,7c-5.73,4.67-8.6,10.04-8.6,16.12c0,5.76,2.87,9.82,8.6,12.2c-0.61-1.65-0.92-3.29-0.92-4.92
		c0-6.4,4.05-11.89,12.16-16.48c2.13-1.2,7.58-3.47,16.36-6.8C639.79,839.75,640.96,837.98,642.43,835.93z M638.19,842.64
		c-0.96,0.48-2.39,1.2-4.28,2.16c-13.25,6.69-19.87,14.3-19.87,22.83c0,0.77,0.11,1.68,0.32,2.72c1.63,0.16,2.72,0.24,3.28,0.24
		c1.76,0,3.69-0.28,5.8-0.84c-0.83-1.55-1.24-3.07-1.24-4.56c0-3.17,1.2-6.14,3.6-8.92c2.4-2.77,5.49-4.77,9.28-6
		C635.68,848.23,636.72,845.68,638.19,842.64z M642.03,875.92c-1.39-0.85-2.37-1.63-2.96-2.32c-2.08,0.93-4.07,1.4-5.96,1.4
		c-3.81,0-6.88-1.52-9.2-4.56c-2.29,0.64-4.36,0.96-6.2,0.96c-0.83,0-1.87-0.08-3.12-0.24c1.07,2.69,2.98,4.87,5.74,6.52
		c2.76,1.65,5.84,2.48,9.26,2.48C633.67,880.15,637.81,878.74,642.03,875.92z M634.83,851.16c-3.17,1.41-5.75,3.44-7.72,6.08
		c-1.97,2.64-2.96,5.4-2.96,8.28c0,1.2,0.25,2.45,0.76,3.76c3.28-1.07,6.25-2.68,8.92-4.85c-0.32-1.63-0.48-3.07-0.48-4.33
		C633.35,857.47,633.84,854.49,634.83,851.16z M638.51,873.11c-2.27-2.51-3.77-5.16-4.52-7.94c-2.75,2.09-5.64,3.69-8.68,4.82
		c1.57,2.85,4.36,4.28,8.36,4.28C635.21,874.28,636.83,873.89,638.51,873.11z M644.84,850.6c-1.47-0.37-2.87-0.56-4.21-0.56
		c-1.28,0-2.65,0.19-4.09,0.56c-0.77,2.82-1.16,6.15-1.16,9.98c0,0.93,0.03,1.75,0.08,2.44
		C639.53,859.32,642.65,855.18,644.84,850.6z M651.86,860.6c0-4.48-2.05-7.7-6.14-9.68c-2.56,5.03-5.96,9.37-10.18,13.02
		c0.35,3.42,1.6,6.35,3.77,8.78c3.61-2.22,5.45-4.82,5.53-7.82c0-0.75,0.27-1.12,0.8-1.12c0.61,0,0.92,0.32,0.92,0.96
		c0,1.15-0.69,2.6-2.06,4.35c-1.37,1.75-2.9,3.12-4.58,4.11c0.37,0.4,1.16,1.05,2.36,1.96l0.4,0.28c2.8-2.11,5.03-4.49,6.69-7.16
		C651.03,865.61,651.86,863.05,651.86,860.6z M663.82,859.76c0-4.69-1.49-8.97-4.48-12.84c-2.99-3.87-7.22-7.01-12.72-9.44
		c-1.87,1.36-4.19,2.81-6.96,4.36c-1.2,2.35-2.19,4.99-2.96,7.92c1.5-0.27,2.81-0.4,3.93-0.4c1.58,0,3.06,0.23,4.45,0.68
		c1.01-2.06,1.67-4.01,1.96-5.86c0.11-0.75,0.35-1.12,0.72-1.12c0.35,0,0.52,0.21,0.52,0.64c0,1.2-0.75,3.42-2.24,6.66
		c4.81,2.08,7.22,5.84,7.22,11.28c0,5.81-2.76,10.76-8.28,14.84c1.41,0.56,2.85,0.84,4.32,0.84c3.97,0,7.38-1.73,10.24-5.18
		C662.39,868.68,663.82,864.56,663.82,859.76z M645.78,837.17c-0.88-0.32-1.72-0.61-2.52-0.88c-1.07,1.28-2.08,2.72-3.04,4.32
		C641.64,839.91,643.49,838.77,645.78,837.17z M654.54,828.41c0-0.43-0.21-0.64-0.64-0.64c-0.85,0-2.3,0.79-4.34,2.36
		s-3.98,3.4-5.82,5.48l0.32,0.16l0.84,0.24l1.04,0.52l0.52,0.16c2.08-1.44,3.95-3,5.6-4.7C653.71,830.29,654.54,829.1,654.54,828.41
		z"/>
	<path d="M742,838.49c0,2.37-1.68,5.35-5.04,8.94c-3.36,3.59-7.76,7.1-13.2,10.54h6.88l-0.36,0.6h-6.96l-3.28,6.36
		c-4.03,7.86-7.47,13.79-10.32,17.78c-2.85,3.98-6.15,7.54-9.88,10.66c-5.15,4.27-9.93,6.4-14.36,6.4c-1.97,0-2.96-0.29-2.96-0.86
		c0-0.27,0.15-0.4,0.44-0.4c0.21,0,0.37,0.03,0.48,0.08c0.96,0.28,1.87,0.42,2.72,0.42c3.6,0,7.23-1.61,10.88-4.84
		c2.24-1.97,4.2-4.29,5.88-6.96c1.39-2.13,4.67-7.94,9.84-17.43l6.16-11.2h-4.28l0.32-0.6h4.36c3.41-5.78,7.19-10.79,11.32-15.02
		s7.32-6.34,9.56-6.34C741.4,836.61,742,837.23,742,838.49z M741.52,838.41c0-0.88-0.44-1.32-1.32-1.32c-2.03,0-4.79,2.32-8.28,6.96
		c-1.73,2.35-4.35,6.72-7.84,13.12c4.37-3.04,8.37-6.5,12-10.4C739.71,842.87,741.52,840.08,741.52,838.41z"/>
	<path d="M766.6,867.14c0,0.21-0.8,1.19-2.4,2.93c-2.03,2.25-3.94,3.37-5.73,3.37c-2.03,0-3.04-1.17-3.04-3.52
		c0-0.75,0.16-1.69,0.48-2.84c-1.68,1.47-3.05,2.92-4.1,4.36c-1.05,1.44-2.87,4.37-5.46,8.8c-1.41-0.11-2.24-0.16-2.48-0.16
		c-0.11,0-0.92,0.05-2.44,0.16l6.56-10.64c3.28-5.33,4.92-8.64,4.92-9.92c0-0.75-0.31-1.12-0.92-1.12c-1.5,0-4.21,2.87-8.13,8.62
		c-0.24,0.37-0.45,0.56-0.64,0.56c-0.11-0.03-0.16-0.11-0.16-0.24c0.03-0.13,0.08-0.24,0.16-0.32l0.72-1
		c4.11-5.48,6.9-8.21,8.37-8.21c2.14,0,3.2,1.37,3.2,4.12c0,2.05-1.09,4.77-3.28,8.16c1.39-1.6,2.71-2.91,3.96-3.92
		c1.01-2.37,2.27-4.36,3.78-5.96c1.51-1.6,2.86-2.4,4.06-2.4c0.83,0,1.24,0.36,1.24,1.08c0,1.28-1.85,3.11-5.56,5.48
		c-0.59,0.37-1.47,0.92-2.64,1.64l-0.48,0.4c-0.37,1.23-0.56,2.24-0.56,3.04c0,2.24,0.84,3.36,2.52,3.36c2.08,0,4.35-1.73,6.81-5.18
		c0.53-0.59,0.87-0.88,1-0.88C766.52,866.9,766.6,866.98,766.6,867.14z"/>
	<path d="M812.69,867.14c0,0.56-1.95,3.15-5.84,7.77c-3.15,3.79-5.63,5.69-7.45,5.69c-1.23,0-2.23-0.46-3-1.38
		c-0.77-0.92-1.16-2.07-1.16-3.46c0-1.44,0.43-3,1.28-4.68c-2.67,3.73-4.71,6.25-6.12,7.56c-1.41,1.31-2.79,1.96-4.12,1.96
		c-1.41,0-2.6-0.61-3.56-1.82s-1.44-2.74-1.44-4.58c0-5.12,3.61-9.65,10.84-13.6c3.17-1.76,5.73-2.64,7.68-2.64
		c1.65,0,2.48,0.8,2.48,2.4c0,0.45-0.11,1.05-0.32,1.8l2.04-3.88c0.8,0.19,1.51,0.28,2.12,0.28c0.72,0,1.65-0.09,2.8-0.28
		L801.83,870c-2.45,4.11-3.68,6.81-3.68,8.12c0,1.25,0.52,1.88,1.56,1.88c1.07,0,2.78-1.22,5.13-3.67s4.74-5.45,7.17-9.03
		c0.16-0.27,0.31-0.4,0.44-0.4C812.61,866.9,812.69,866.98,812.69,867.14z M801.67,860.52c0-1.31-0.6-1.96-1.8-1.96
		c-2.45,0-5.67,2.4-9.66,7.2c-3.99,4.8-5.98,8.68-5.98,11.64c0,1.73,0.77,2.6,2.32,2.6c1.84,0,5.02-3.05,9.56-9.16
		C799.82,865.82,801.67,862.39,801.67,860.52z"/>
	<path d="M858.14,867.18c0,0.43-1.44,2.25-4.32,5.47c-3.23,3.57-7.41,6.75-12.53,9.54l-2,3.64c-3.63,6.69-7.69,11.85-12.2,15.48
		c-4.32,3.49-8.05,5.24-11.2,5.24c-1.15,0-2.09-0.35-2.84-1.04c-0.75-0.69-1.12-1.55-1.12-2.56c0-5.47,6.17-11.01,18.51-16.64
		c2.67-1.23,4.38-2.05,5.16-2.48l6.8-12.52c-2.96,3.92-5.04,6.45-6.26,7.58c-1.21,1.13-2.46,1.7-3.74,1.7
		c-1.39,0-2.57-0.61-3.54-1.84c-0.97-1.23-1.46-2.72-1.46-4.48c0-4.61,3.01-8.8,9.04-12.56c4.03-2.51,7.18-3.76,9.48-3.76
		c1.6,0,2.4,0.88,2.4,2.64c0,0.48-0.12,1.05-0.36,1.72l2.24-4.04c0.72,0.19,1.35,0.28,1.88,0.28c0.69,0,1.71-0.09,3.04-0.28
		c-0.19,0.24-1.36,2.24-3.52,6l-9.92,17.12c3.49-1.97,6.29-3.87,8.38-5.71c2.09-1.84,4.46-4.49,7.1-7.95c0.4-0.53,0.67-0.8,0.8-0.8
		C858.08,866.96,858.14,867.04,858.14,867.18z M835.2,884.51c-0.51,0.29-2.01,1.05-4.52,2.28c-12.16,6.02-18.24,11.44-18.24,16.24
		c0,0.83,0.31,1.52,0.92,2.08s1.4,0.84,2.36,0.84c2.93,0,5.79-1.5,8.56-4.5c2.77-3,6.25-8.38,10.44-16.13L835.2,884.51z
		 M847.88,860.6c0-1.36-0.65-2.04-1.96-2.04c-2.4,0-5.58,2.39-9.54,7.18c-3.96,4.79-5.94,8.64-5.94,11.58
		c0,1.79,0.77,2.68,2.32,2.68c1.57,0,4.24-2.37,8-7.12C845.51,866.88,847.88,862.79,847.88,860.6z"/>
	<path d="M899.03,867.14c0,0.21-0.8,1.19-2.4,2.93c-2.03,2.25-3.94,3.37-5.73,3.37c-2.03,0-3.04-1.17-3.04-3.52
		c0-0.75,0.16-1.69,0.48-2.84c-1.68,1.47-3.05,2.92-4.1,4.36c-1.05,1.44-2.87,4.37-5.46,8.8c-1.41-0.11-2.24-0.16-2.48-0.16
		c-0.11,0-0.92,0.05-2.44,0.16l6.56-10.64c3.28-5.33,4.92-8.64,4.92-9.92c0-0.75-0.31-1.12-0.92-1.12c-1.5,0-4.21,2.87-8.13,8.62
		c-0.24,0.37-0.45,0.56-0.64,0.56c-0.11-0.03-0.16-0.11-0.16-0.24c0.03-0.13,0.08-0.24,0.16-0.32l0.72-1
		c4.11-5.48,6.9-8.21,8.37-8.21c2.14,0,3.2,1.37,3.2,4.12c0,2.05-1.09,4.77-3.28,8.16c1.39-1.6,2.71-2.91,3.96-3.92
		c1.01-2.37,2.27-4.36,3.78-5.96c1.51-1.6,2.86-2.4,4.06-2.4c0.83,0,1.24,0.36,1.24,1.08c0,1.28-1.85,3.11-5.56,5.48
		c-0.59,0.37-1.47,0.92-2.64,1.64l-0.48,0.4c-0.37,1.23-0.56,2.24-0.56,3.04c0,2.24,0.84,3.36,2.52,3.36c2.08,0,4.35-1.73,6.81-5.18
		c0.53-0.59,0.87-0.88,1-0.88C898.95,866.9,899.03,866.98,899.03,867.14z"/>
	<path d="M945.12,867.14c0,0.56-1.95,3.15-5.84,7.77c-3.15,3.79-5.63,5.69-7.45,5.69c-1.23,0-2.23-0.46-3-1.38
		c-0.77-0.92-1.16-2.07-1.16-3.46c0-1.44,0.43-3,1.28-4.68c-2.67,3.73-4.71,6.25-6.12,7.56c-1.41,1.31-2.79,1.96-4.12,1.96
		c-1.41,0-2.6-0.61-3.56-1.82s-1.44-2.74-1.44-4.58c0-5.12,3.61-9.65,10.84-13.6c3.17-1.76,5.73-2.64,7.68-2.64
		c1.65,0,2.48,0.8,2.48,2.4c0,0.45-0.11,1.05-0.32,1.8l2.04-3.88c0.8,0.19,1.51,0.28,2.12,0.28c0.72,0,1.65-0.09,2.8-0.28
		L934.26,870c-2.45,4.11-3.68,6.81-3.68,8.12c0,1.25,0.52,1.88,1.56,1.88c1.07,0,2.78-1.22,5.13-3.67s4.74-5.45,7.17-9.03
		c0.16-0.27,0.31-0.4,0.44-0.4C945.04,866.9,945.12,866.98,945.12,867.14z M934.1,860.52c0-1.31-0.6-1.96-1.8-1.96
		c-2.45,0-5.67,2.4-9.66,7.2c-3.99,4.8-5.98,8.68-5.98,11.64c0,1.73,0.77,2.6,2.32,2.6c1.84,0,5.02-3.05,9.56-9.16
		C932.25,865.82,934.1,862.39,934.1,860.52z"/>
	<path d="M995.25,867.14c0,0.56-1.94,3.15-5.8,7.77c-3.18,3.79-5.67,5.69-7.49,5.69c-1.2,0-2.21-0.47-3.02-1.4
		c-0.81-0.93-1.22-2.08-1.22-3.44c0-1.2,0.25-2.31,0.74-3.34s1.78-3.06,3.86-6.1c2.16-3.2,3.24-5.24,3.24-6.12
		c0-1.09-0.57-1.64-1.72-1.64c-3.89,0-9.89,7.22-18,21.67c-1.31-0.11-2.09-0.16-2.36-0.16c-0.93,0-1.81,0.05-2.64,0.16l6.24-9.88
		c3.55-5.65,5.32-9.18,5.32-10.6c0-0.8-0.33-1.2-1-1.2c-1.36,0-4.05,2.87-8.05,8.62c-0.24,0.35-0.43,0.53-0.56,0.56
		c-0.13,0-0.21-0.08-0.24-0.24c0.03-0.13,0.08-0.24,0.16-0.32l0.76-1c4.08-5.48,6.83-8.21,8.25-8.21c0.91,0,1.68,0.41,2.32,1.24
		c0.64,0.83,0.96,1.81,0.96,2.96c0,1.71-1,4.08-3,7.12c3.15-4.34,5.56-7.32,7.26-8.92c1.69-1.6,3.26-2.4,4.7-2.4
		c1.17,0,2.16,0.48,2.96,1.44s1.2,2.15,1.2,3.56c0,1.79-1.23,4.52-3.68,8.2c-2.51,3.76-3.76,6.16-3.76,7.2
		c0,1.09,0.55,1.64,1.64,1.64c2.38,0,6.47-4.23,12.29-12.7c0.13-0.27,0.27-0.4,0.4-0.4C995.17,866.9,995.25,866.98,995.25,867.14z"
		/>
	<path d="M1033.1,867.14c0,0.35-1.88,2.59-5.64,6.73c-4.11,4.49-7.6,6.73-10.49,6.73c-1.87,0-3.47-0.71-4.8-2.14
		c-1.33-1.43-2-3.13-2-5.1c0-2.24,0.91-4.56,2.72-6.96c1.81-2.4,4.25-4.46,7.32-6.2c2.59-1.49,4.69-2.24,6.32-2.24
		c1.97,0,2.96,1.17,2.96,3.52c0,1.84-0.62,3.68-1.86,5.52c-1.24,1.84-2.47,2.76-3.7,2.76c-1.2,0-1.8-0.6-1.8-1.8
		c0-1.41,1.23-2.72,3.68-3.92c1.89-0.93,2.84-2.16,2.84-3.68c0-1.2-0.65-1.8-1.96-1.8c-2.21,0-4.93,2.2-8.16,6.6
		c-3.23,4.4-4.84,8.09-4.84,11.08c0,2.51,1.17,3.76,3.52,3.76c3.68,0,8.67-4.15,14.97-12.46c0.35-0.43,0.6-0.64,0.76-0.64
		C1033.04,866.92,1033.1,867,1033.1,867.14z"/>
	<path d="M1071.27,867.18c0,0.08-0.24,0.43-0.72,1.04l-1.72,2.16c-5.52,6.82-10.26,10.22-14.21,10.22c-1.87,0-3.44-0.67-4.7-2.02
		c-1.27-1.35-1.9-3.03-1.9-5.06c0-4.8,3.35-9.02,10.04-12.68c3.52-1.92,6.38-2.88,8.6-2.88c0.96,0,1.78,0.29,2.46,0.86
		c0.68,0.57,1.02,1.27,1.02,2.1c0,1.92-1.25,3.55-3.76,4.9c-2.51,1.35-6.69,2.61-12.56,3.78c-1.81,2.75-2.72,5.04-2.72,6.88
		c0,2.29,1.24,3.44,3.72,3.44c4.22,0,9.38-4.11,15.49-12.34c0.32-0.43,0.59-0.64,0.8-0.64
		C1071.21,866.96,1071.27,867.04,1071.27,867.18z M1067.89,859.76c0-0.85-0.47-1.28-1.4-1.28c-1.41,0-3.27,0.98-5.58,2.94
		c-2.31,1.96-4.57,4.5-6.78,7.62c3.84-0.99,7.09-2.38,9.76-4.18C1066.55,863.06,1067.89,861.36,1067.89,859.76z"/>
	<path d="M1102.78,851.62c0,1.06-1.67,3.18-5,6.34c-0.16,0.83-0.24,1.55-0.24,2.16c0,1.55,0.71,4,2.12,7.36
		c0.72,1.68,1.08,3.09,1.08,4.24c0,2.4-1.17,4.48-3.5,6.24c-2.33,1.76-5.1,2.64-8.3,2.64c-1.81,0-3.26-0.51-4.34-1.54
		c-1.08-1.03-1.62-2.41-1.62-4.14c0-2,0.71-3.95,2.14-5.84s2.9-2.84,4.42-2.84c0.27,0,0.51,0.05,0.72,0.16l3.2-3.92
		c0.96-1.15,2.24-2.73,3.84-4.76c0.45-1.87,1.15-3.46,2.08-4.8s1.85-2,2.76-2C1102.57,850.92,1102.78,851.16,1102.78,851.62z
		 M1097.22,867.4c0-0.8-0.03-1.59-0.08-2.38c-0.05-0.79-0.08-1.91-0.08-3.38c0-1.2,0.05-2.2,0.16-3c-1.49,1.89-3.65,4.56-6.48,8
		c0.51,0.43,0.76,0.95,0.76,1.56c0,1.57-1.29,2.64-3.88,3.2c-1.04,0.24-1.94,0.81-2.7,1.7c-0.76,0.89-1.14,1.83-1.14,2.82
		c0,1.07,0.39,1.96,1.16,2.68c0.77,0.72,1.73,1.08,2.88,1.08c2.24,0,4.37-1.3,6.38-3.9C1096.22,873.18,1097.22,870.38,1097.22,867.4
		z"/>
</g>
<g>
	<path class="st1" d="M1288.07,615.98c-5.49,8.32-11.8,18.95-18.99,31.9c-7.18,12.94-14.27,27.12-21.27,42.53
		c-7,15.41-13.35,31.56-19.02,48.48c-5.67,16.92-9.52,33.47-11.62,49.62c-2.06,16.18-1.94,31.44,0.43,45.8
		c2.37,14.36,8.08,26.84,17.17,37.42c1.51,2.47,1.54,4.68,0.12,6.69c-1.42,1.97-3.54,3.54-6.38,4.65c-2.84,1.14-5.92,1.76-9.22,1.85
		c-3.3,0.09-6.19-0.43-8.63-1.54c-8.14-2.96-14.55-7.83-19.17-14.61c-0.74-1.08-1.45-2.22-2.1-3.42c-0.12-0.22-0.25-0.43-0.34-0.68
		c-4.56-8.44-7.4-18.55-8.6-30.36c-1.23-12.11-0.89-25.55,0.99-40.41c1.88-14.82,4.96-30.11,9.22-45.8
		c4.25-15.69,9.31-31.47,15.16-47.34c2.06-5.61,4.19-11.13,6.38-16.52c0.89-2.16,1.79-4.28,2.68-6.41
		c3.17-7.61,6.5-14.98,9.96-22.16c-3.54,4.53-7.06,9.09-10.51,13.65c-0.96,1.2-1.88,2.43-2.77,3.64
		c-14.02,18.52-27.34,37.2-40.04,56c-16.64,24.69-31.75,49.87-45.37,75.57c-2.1,1.33-4.9,0.59-8.51-2.28
		c-3.61-2.84-7.18-6.5-10.79-11.03c-3.58-4.53-6.56-9.18-8.91-13.9c-2.37-4.72-3.27-8.41-2.71-11.06
		c3.02-12.3,6.97-24.19,11.77-35.72s10.26-22.84,16.3-33.9c6.04-11.03,12.42-21.85,19.14-32.45c6.72-10.57,13.47-21.17,20.28-31.75
		c-10.02,10.2-20,21.02-29.93,32.45c-9.92,11.43-19.57,22.93-28.91,34.46c-9.37,11.53-18.43,22.87-27.21,34.03
		c-8.81,11.16-16.98,21.64-24.53,31.47c-3.61,9.83-7.06,19.57-10.36,29.22c-3.3,9.65-6.47,19.26-9.49,28.91
		c-1.7,3.02-3.98,4.53-6.81,4.53c-2.84,0-5.83-0.99-8.94-2.96c-3.11-2-6.19-4.68-9.22-8.11c-3.02-3.39-5.61-7.03-7.8-10.91
		c-2.16-3.85-3.67-7.74-4.53-11.62c-0.86-3.88-0.62-7.34,0.71-10.36c6.41-16.83,13.13-33.32,20.13-49.47
		c7-16.15,14.24-32.18,21.7-48.08c7.46-15.87,15.23-31.78,23.24-47.77c8.04-15.97,16.21-32.18,24.53-48.64
		c-7,5.49-13.9,11.13-20.68,16.89c-6.81,5.76-13.68,11.47-20.56,17.14c-6.9,5.7-13.87,11.16-20.87,16.46
		c-7,5.3-14.18,10.2-21.54,14.73c-0.59,0.34-1.2,0.71-1.82,1.08c1.14-3.27,2.25-6.5,3.36-9.71l0.74-2.1
		c3.88-11.34,5.83-22.62,5.79-33.72c11.16-6.56,22.04-13.44,32.61-20.62c12.94-8.78,25.3-17.66,37.02-26.66
		c11.71-8.97,22.5-17.23,32.33-24.81c0.37-0.18,0.83-0.28,1.42-0.28c2.47-1.14,5.49-0.89,9.06,0.71c3.61,1.6,6.9,3.91,9.92,6.93
		c3.02,3.05,5.46,6.35,7.24,9.96c1.79,3.58,2.13,6.78,0.99,9.62c-11.34,21.54-22.44,44.01-33.32,67.34
		c-10.88,23.36-21.33,47.22-31.34,71.6c9.65-12.67,19.73-25.7,30.2-39.11c10.51-13.44,21.17-26.38,32.05-38.87
		c10.85-12.48,21.7-24.1,32.45-34.86c8.04-8.04,15.9-15.26,23.52-21.64c0.99-0.8,1.94-1.6,2.93-2.37c1.57-1.33,3.17-2.56,4.75-3.79
		c1.88-1.51,3.3-1.79,4.25-0.86c2.28,0.4,4.72,1.91,7.37,4.56c2.65,2.65,5.02,5.76,7.09,9.34c2.1,3.61,3.64,7.34,4.68,11.22
		c1.05,3.85,0.99,7.12-0.12,9.77c-4.35,9.28-9.46,18.89-15.35,28.82c-0.86,1.42-1.73,2.87-2.59,4.32c-0.74,1.17-1.48,2.37-2.22,3.58
		c-7.92,12.79-16.12,25.67-24.5,38.71c-8.41,13.04-16.55,26.01-24.41,38.86c-7.83,12.85-14.39,25.12-19.69,36.86
		c12.08-18.34,24.19-35.94,36.31-52.77c12.08-16.8,23.67-31.78,34.74-44.94c0.71-0.86,1.42-1.7,2.16-2.53
		c0.92-1.11,1.85-2.19,2.8-3.24c9.12-10.6,17.75-19.57,25.8-26.97c9.43-8.69,17.48-14.18,24.1-16.46c1.88-0.55,4.56-0.55,8.08,0
		c3.48,0.55,6.81,1.57,9.92,2.99c3.11,1.42,5.58,3.05,7.37,4.96C1289.15,611.64,1289.39,613.7,1288.07,615.98z"/>
	<path class="st1" d="M1380.65,707.27c-0.49-0.92-1.23-1.82-2.28-2.68c-1.05-0.86-2.22-1.36-3.54-1.57
		c-1.33-0.18-2.47,0.12-3.39,0.86c-2.28,2.47-5.76,6.29-10.51,11.5c-4.72,5.18-10.02,10.94-15.87,17.29
		c-5.86,6.32-12.08,12.76-18.71,19.29c-6.63,6.5-12.94,12.42-18.99,17.72c-6.07,5.27-11.59,9.43-16.58,12.45
		c-5.02,3.02-8.94,4.16-11.77,3.42c-3.61-1.14-5.55-3.73-5.83-7.8c-0.28-4.07,0.03-8.29,0.99-12.64c2.1,1.33,4.75,2,7.95,2
		c3.21,0,6.41-0.86,9.65-2.56c4.9-2.28,9.68-5.21,14.3-8.78c4.62-3.61,8.88-7.58,12.76-11.93c3.88-4.35,7.24-9.03,10.08-14.02
		c2.84-5.02,4.99-10.26,6.5-15.75c0.59-2.65,1.11-5.95,1.57-9.92c0.46-3.94,0.28-7.8-0.55-11.47c-0.86-3.7-2.56-6.9-5.12-9.65
		c-2.56-2.74-6.38-4.22-11.5-4.41c-6.97-0.37-14.12,1.2-21.39,4.68c-7.27,3.51-14.27,8.26-20.99,14.33
		c-6.72,6.04-12.91,13.04-18.58,20.96c-5.67,7.95-10.45,16.09-14.3,24.41c-3.88,8.32-6.63,16.52-8.23,24.66
		c-1.6,8.14-1.66,15.41-0.12,21.82c1.51,6.44,4.72,11.74,9.62,15.9c4.93,4.16,12.02,6.41,21.27,6.78c6.63,0.4,13.81-1.63,21.54-6.07
		c7.77-4.44,15.56-10.17,23.39-17.17c7.86-7,15.6-14.64,23.27-22.96c7.64-8.32,14.55-16.37,20.68-24.1
		c6.16-7.77,11.4-14.55,15.75-20.43c4.35-5.86,7.27-9.8,8.78-11.9C1381.08,709,1381.11,708.23,1380.65,707.27z M1287.51,732.95
		c4.16-6.13,8.29-11.5,12.45-16.03c4.16-4.53,7.89-8.08,11.22-10.63c3.3-2.56,5.52-3.54,6.66-2.96l0.55,0.55
		c0.22,0.18,0.25,0.55,0.15,1.14c-0.09,0.55-0.37,1.45-0.86,2.68c-0.46,1.23-1.17,2.99-2.13,5.24c-1.29,2.65-3.21,6.01-5.67,10.08
		c-2.43,4.07-5.24,8.17-8.35,12.33c-3.11,4.16-6.56,7.89-10.36,11.22c-3.76,3.3-7.55,5.33-11.34,6.1c-1.33,0.37-2.07,0.28-2.25-0.31
		C1280.02,745.55,1283.35,739.08,1287.51,732.95z"/>
</g>
</svg>
