<?xml version="1.0" encoding="utf-8"?>
<!-- Generator: Adobe Illustrator 24.3.0, SVG Export Plug-In . SVG Version: 6.00 Build 0)  -->
<svg version="1.1" id="Layer_1" xmlns="http://www.w3.org/2000/svg" xmlns:xlink="http://www.w3.org/1999/xlink" x="0px" y="0px"
	 viewBox="0 0 32 32" style="enable-background:new 0 0 32 32;" xml:space="preserve">
<g>
	<path d="M16.69,4.83c0.25,0.51,0.5,1.02,0.76,1.55c-0.88,0-1.74,0-2.63,0c0.26-0.52,0.51-1.04,0.76-1.55
		C15.95,4.83,16.32,4.83,16.69,4.83z"/>
	<path d="M14.73,4.83c-0.23,0.46-0.47,0.92-0.69,1.39c-0.06,0.13-0.13,0.19-0.29,0.19c-0.43-0.01-0.86,0-1.34,0
		c0.07-0.08,0.1-0.13,0.14-0.17c0.41-0.41,0.82-0.83,1.23-1.24c0.05-0.05,0.09-0.11,0.13-0.16C14.19,4.83,14.46,4.83,14.73,4.83z"/>
	<path d="M18.36,4.83c0.17,0.18,0.33,0.37,0.5,0.54c0.33,0.33,0.66,0.64,1.03,1.01c-0.12,0.01-0.17,0.02-0.22,0.02
		c-0.38,0-0.77-0.01-1.15,0.01c-0.15,0.01-0.23-0.06-0.29-0.19c-0.22-0.47-0.46-0.93-0.69-1.39C17.82,4.83,18.09,4.83,18.36,4.83z"
		/>
	<path d="M19.79,15.17L19.79,15.17c-0.06,0.01-0.12,0.02-0.17,0.03h0.25C19.84,15.19,19.81,15.18,19.79,15.17z"/>
	<path d="M22.69,17.46c-0.13-0.59-0.38-1.13-0.7-1.58c-0.02-0.02-0.03-0.05-0.05-0.07c-0.28-0.37-0.61-0.68-1-0.93
		c-0.66-0.44-1.46-0.68-2.34-0.69c-0.3,0-0.61,0-0.91,0l-3.37,0c-0.21,0-0.42,0-0.63,0c-0.64,0-1.25,0.13-1.84,0.4
		c-1.75,0.79-2.75,2.89-2.21,4.73c0.05,0.19,0.11,0.37,0.17,0.55c0.11,0.35,0.23,0.7,0.35,1.05c0.12,0.35,0.24,0.69,0.36,1.04
		c0.1,0.3,0.21,0.6,0.32,0.91c0.07-0.03,0.11-0.05,0.15-0.07c1.83-0.95,3.7-1.04,5.6-0.25c1.43,0.6,2.92,0.88,4.47,0.81
		c0.14-0.01,0.23-0.04,0.28-0.19c0.28-0.83,0.56-1.65,0.85-2.47c0.12-0.34,0.23-0.68,0.35-1.02c0.13-0.38,0.21-0.77,0.24-1.16
		C22.8,18.17,22.77,17.82,22.69,17.46z M18.3,15.35c0.02-0.24,0.18-0.36,0.58-0.35c0.31,0.01,0.61,0.07,0.9,0.18h0
		c0.03,0.01,0.05,0.02,0.08,0.03c0.35,0.14,0.68,0.34,0.99,0.6c0.19,0.16,0.21,0.38,0.07,0.55c-0.14,0.17-0.36,0.21-0.55,0.05
		c-0.49-0.4-1.05-0.61-1.68-0.64C18.44,15.75,18.29,15.57,18.3,15.35z M21.91,18.97c-0.03,0.13-0.06,0.27-0.1,0.4
		c-0.11,0.35-0.23,0.7-0.35,1.04c-0.21,0.6-0.42,1.2-0.62,1.8c-0.07,0.19-0.2,0.32-0.41,0.3c-0.19-0.02-0.32-0.14-0.34-0.32
		c-0.01-0.1,0.02-0.21,0.05-0.31c0.21-0.62,0.42-1.24,0.64-1.85c0.08-0.22,0.15-0.44,0.23-0.66c0.01-0.03,0.02-0.05,0.03-0.08
		c0.18-0.51,0.25-1.03,0.12-1.57c-0.07-0.28,0.08-0.5,0.32-0.54c0.22-0.04,0.4,0.13,0.44,0.41c0.04,0.22,0.07,0.45,0.11,0.75
		C21.98,18.53,21.95,18.75,21.91,18.97z"/>
	<path d="M21.04,24.14c-0.25,0.6-0.43,1.18-0.73,1.71c-0.32,0.58-0.9,0.84-1.56,0.85c-1.71,0.01-3.42,0.01-5.13,0
		c-0.9,0-1.54-0.41-1.88-1.24c-0.24-0.59-0.43-1.2-0.64-1.81c0.53-0.33,1.09-0.56,1.69-0.69c1.13-0.25,2.25-0.18,3.33,0.25
		c0.92,0.37,1.86,0.71,2.86,0.82c0.55,0.06,1.11,0.08,1.66,0.11C20.75,24.15,20.86,24.14,21.04,24.14z"/>
	<path d="M14.19,11.47c1.3,0,2.59,0,3.89,0c0,0.64,0,1.29,0,1.94c-1.29,0-2.58,0-3.89,0C14.19,12.77,14.19,12.13,14.19,11.47z"/>
	<path d="M20.05,7.17c-0.27,0.42-0.53,0.81-0.78,1.2c-0.47,0.72-0.94,1.44-1.4,2.17c-0.07,0.12-0.15,0.16-0.29,0.16
		c-0.27-0.01-0.54,0-0.84,0c0.04-0.09,0.06-0.15,0.09-0.22c0.47-1.04,0.95-2.08,1.41-3.12c0.06-0.14,0.14-0.18,0.28-0.18
		C19.02,7.18,19.52,7.17,20.05,7.17z"/>
	<path d="M15.5,10.68c-0.31,0-0.61,0-0.92,0c-0.05,0-0.11-0.04-0.13-0.08c-0.74-1.13-1.47-2.26-2.22-3.42c0.1,0,0.18-0.01,0.25-0.01
		c0.43,0,0.87,0,1.3,0c0.07,0,0.17,0.05,0.2,0.1c0.51,1.11,1.01,2.22,1.52,3.33C15.5,10.62,15.5,10.65,15.5,10.68z"/>
	<path d="M16.14,10.14c-0.46-1.01-0.89-1.97-1.34-2.95c0.9,0,1.78,0,2.68,0C17.04,8.16,16.6,9.13,16.14,10.14z"/>
</g>
</svg>